<?xml version="1.0" encoding="UTF-8" standalone="no"?><!DOCTYPE svg PUBLIC "-//W3C//DTD SVG 1.1//EN" "http://www.w3.org/Graphics/SVG/1.1/DTD/svg11.dtd"><svg width="100%" height="100%" viewBox="0 0 18 23" version="1.1" xmlns="http://www.w3.org/2000/svg" xmlns:xlink="http://www.w3.org/1999/xlink" xml:space="preserve" xmlns:serif="http://www.serif.com/" style="fill-rule:evenodd;clip-rule:evenodd;stroke-linecap:round;stroke-linejoin:round;stroke-miterlimit:1.5;"><path d="M6.092,9.786c0.057,-0.114 0.173,-0.186 0.3,-0.186c0.128,0 0.244,0.072 0.301,0.186c0.353,0.705 0.93,1.861 1.256,2.512c0.052,0.105 0.047,0.228 -0.014,0.327c-0.062,0.099 -0.17,0.16 -0.286,0.16l-2.513,-0c-0.116,-0 -0.225,-0.061 -0.286,-0.16c-0.061,-0.099 -0.067,-0.222 -0.015,-0.327c0.326,-0.651 0.904,-1.807 1.257,-2.512Z" style="fill:#808285;stroke:#231f20;stroke-width:0.24px;"/><path d="M12.099,9.786c0.057,-0.114 0.174,-0.186 0.301,-0.186c0.127,0 0.244,0.072 0.301,0.186c0.352,0.705 0.93,1.861 1.256,2.512c0.052,0.105 0.046,0.228 -0.015,0.327c-0.061,0.099 -0.169,0.16 -0.286,0.16l-2.512,-0c-0.117,-0 -0.225,-0.061 -0.286,-0.16c-0.061,-0.099 -0.067,-0.222 -0.015,-0.327c0.326,-0.651 0.904,-1.807 1.256,-2.512Z" style="fill:#808285;stroke:#231f20;stroke-width:0.24px;"/></svg>