<?xml version="1.0" encoding="UTF-8" standalone="no"?><!DOCTYPE svg PUBLIC "-//W3C//DTD SVG 1.1//EN" "http://www.w3.org/Graphics/SVG/1.1/DTD/svg11.dtd"><svg width="100%" height="100%" viewBox="0 0 18 23" version="1.1" xmlns="http://www.w3.org/2000/svg" xmlns:xlink="http://www.w3.org/1999/xlink" xml:space="preserve" xmlns:serif="http://www.serif.com/" style="fill-rule:evenodd;clip-rule:evenodd;stroke-linecap:round;stroke-linejoin:round;stroke-miterlimit:1.5;"><path d="M5.964,15.863c0.057,-0.114 0.174,-0.186 0.301,-0.186c0.127,0 0.244,0.072 0.301,0.186c0.352,0.705 0.93,1.861 1.256,2.513c0.052,0.104 0.046,0.227 -0.015,0.326c-0.061,0.099 -0.169,0.16 -0.286,0.16l-2.512,-0c-0.117,-0 -0.225,-0.061 -0.286,-0.16c-0.061,-0.099 -0.067,-0.222 -0.015,-0.326c0.326,-0.652 0.904,-1.808 1.256,-2.513Z" style="fill:#808285;stroke:#231f20;stroke-width:0.24px;"/><path d="M11.7,15.863c0.057,-0.114 0.173,-0.186 0.301,-0.186c0.127,0 0.243,0.072 0.3,0.186c0.353,0.705 0.931,1.861 1.257,2.513c0.052,0.104 0.046,0.227 -0.015,0.326c-0.061,0.099 -0.169,0.16 -0.286,0.16l-2.513,-0c-0.116,-0 -0.224,-0.061 -0.285,-0.16c-0.062,-0.099 -0.067,-0.222 -0.015,-0.326c0.326,-0.652 0.904,-1.808 1.256,-2.513Z" style="fill:#808285;stroke:#231f20;stroke-width:0.24px;"/><path d="M5.964,11.158c0.057,-0.114 0.174,-0.186 0.301,-0.186c0.127,-0 0.244,0.072 0.301,0.186c0.352,0.705 0.93,1.861 1.256,2.512c0.052,0.104 0.046,0.228 -0.015,0.327c-0.061,0.099 -0.169,0.16 -0.286,0.16l-2.512,-0c-0.117,-0 -0.225,-0.061 -0.286,-0.16c-0.061,-0.099 -0.067,-0.223 -0.015,-0.327c0.326,-0.651 0.904,-1.807 1.256,-2.512Z" style="fill:#808285;stroke:#231f20;stroke-width:0.24px;"/><path d="M11.7,11.158c0.057,-0.114 0.173,-0.186 0.301,-0.186c0.127,-0 0.243,0.072 0.3,0.186c0.353,0.705 0.931,1.861 1.257,2.512c0.052,0.104 0.046,0.228 -0.015,0.327c-0.061,0.099 -0.169,0.16 -0.286,0.16l-2.513,-0c-0.116,-0 -0.224,-0.061 -0.285,-0.16c-0.062,-0.099 -0.067,-0.223 -0.015,-0.327c0.326,-0.651 0.904,-1.807 1.256,-2.512Z" style="fill:#808285;stroke:#231f20;stroke-width:0.24px;"/><path d="M5.964,6.548c0.057,-0.114 0.174,-0.185 0.301,-0.185c0.127,-0 0.244,0.071 0.301,0.185c0.352,0.706 0.93,1.861 1.256,2.513c0.052,0.104 0.046,0.228 -0.015,0.327c-0.061,0.099 -0.169,0.159 -0.286,0.159l-2.512,0c-0.117,0 -0.225,-0.06 -0.286,-0.159c-0.061,-0.099 -0.067,-0.223 -0.015,-0.327c0.326,-0.652 0.904,-1.807 1.256,-2.513Z" style="fill:#808285;stroke:#231f20;stroke-width:0.24px;"/><path d="M5.964,2.25c0.057,-0.114 0.174,-0.186 0.301,-0.186c0.127,-0 0.244,0.072 0.301,0.186c0.352,0.705 0.93,1.861 1.256,2.512c0.052,0.105 0.046,0.228 -0.015,0.327c-0.061,0.099 -0.169,0.16 -0.286,0.16l-2.512,-0c-0.117,-0 -0.225,-0.061 -0.286,-0.16c-0.061,-0.099 -0.067,-0.222 -0.015,-0.327c0.326,-0.651 0.904,-1.807 1.256,-2.512Z" style="fill:#808285;stroke:#231f20;stroke-width:0.24px;"/><path d="M11.7,6.548c0.057,-0.114 0.173,-0.185 0.301,-0.185c0.127,-0 0.243,0.071 0.3,0.185c0.353,0.706 0.931,1.861 1.257,2.513c0.052,0.104 0.046,0.228 -0.015,0.327c-0.061,0.099 -0.169,0.159 -0.286,0.159l-2.513,0c-0.116,0 -0.224,-0.06 -0.285,-0.159c-0.062,-0.099 -0.067,-0.223 -0.015,-0.327c0.326,-0.652 0.904,-1.807 1.256,-2.513Z" style="fill:#808285;stroke:#231f20;stroke-width:0.24px;"/><path d="M11.7,2.25c0.057,-0.114 0.173,-0.186 0.301,-0.186c0.127,-0 0.243,0.072 0.3,0.186c0.353,0.705 0.931,1.861 1.257,2.512c0.052,0.105 0.046,0.228 -0.015,0.327c-0.061,0.099 -0.169,0.16 -0.286,0.16l-2.513,-0c-0.116,-0 -0.224,-0.061 -0.285,-0.16c-0.062,-0.099 -0.067,-0.222 -0.015,-0.327c0.326,-0.651 0.904,-1.807 1.256,-2.512Z" style="fill:#808285;stroke:#231f20;stroke-width:0.24px;"/></svg>